<svg viewBox="0 0 800 250" xmlns="http://www.w3.org/2000/svg">
    <!-- Background with gradient -->
    <defs>
        <linearGradient id="bg-gradient" x1="0%" y1="0%" x2="100%" y2="100%">
            <stop offset="0%" stop-color="#051937" />
            <stop offset="100%" stop-color="#004d7a" />
        </linearGradient>

        <!-- Glow effect -->
        <filter id="glow" x="-20%" y="-20%" width="140%" height="140%">
            <feGaussianBlur stdDeviation="5" result="blur" />
            <feMerge>
                <feMergeNode in="blur" />
                <feMergeNode in="SourceGraphic" />
            </feMerge>
        </filter>

        <!-- Circuit pattern -->
        <pattern id="circuitPattern" patternUnits="userSpaceOnUse" width="100" height="100" patternTransform="scale(0.5)">
            <path d="M30,10 L70,10 M10,30 L10,70 M90,30 L90,70 M30,90 L70,90" stroke="#0066cc" stroke-width="1" fill="none" opacity="0.3"/>
            <path d="M10,10 L30,10 L30,30 L10,30 Z M70,10 L90,10 L90,30 L70,30 Z M10,70 L30,70 L30,90 L10,90 Z M70,70 L90,70 L90,90 L70,90 Z" stroke="#0066cc" stroke-width="1" fill="none" opacity="0.3"/>
            <circle cx="10" cy="10" r="3" fill="#0099ff" opacity="0.5"/>
            <circle cx="90" cy="10" r="3" fill="#0099ff" opacity="0.5"/>
            <circle cx="10" cy="90" r="3" fill="#0099ff" opacity="0.5"/>
            <circle cx="90" cy="90" r="3" fill="#0099ff" opacity="0.5"/>
        </pattern>
    </defs>

    <!-- Main background -->
    <rect width="800" height="250" fill="url(#bg-gradient)" />

    <!-- Circuit pattern overlay -->
    <rect width="800" height="250" fill="url(#circuitPattern)" />

    <!-- Simple geometric DevOps shapes in place of infinity symbol -->
    <g transform="translate(400, 135)" filter="url(#glow)">
        <!-- Circle -->
        <circle cx="-60" cy="0" r="30" fill="none" stroke="#00ccff" stroke-width="4" />

        <!-- Square -->
        <rect x="30" y="-30" width="60" height="60" fill="none" stroke="#00ccff" stroke-width="4" />

        <!-- Connecting line -->
        <line x1="-30" y1="0" x2="30" y2="0" stroke="#00ccff" stroke-width="4" />

        <!-- Small DevOps icons -->
        <circle cx="-60" cy="0" r="15" fill="#0066cc" opacity="0.7" />
        <text x="-60" y="5" font-family="'Courier New', monospace" font-size="12" fill="#ffffff" text-anchor="middle">CI</text>

        <rect x="45" y="-15" width="30" height="30" fill="#0066cc" opacity="0.7" />
        <text x="60" y="5" font-family="'Courier New', monospace" font-size="12" fill="#ffffff" text-anchor="middle">CD</text>
    </g>

    <!-- Header -->
    <text x="400" y="50" font-family="'Segoe UI', Tahoma, Geneva, sans-serif" font-size="32" font-weight="bold" fill="#ffffff" text-anchor="middle" filter="url(#glow)">HACKATHON TAMASHA</text>

    <!-- Subtitle -->
    <text x="400" y="80" font-family="'Segoe UI', Tahoma, sans-serif" font-size="18" fill="#7fdbff" text-anchor="middle">WHERE DEVOPS MEETS CREATIVITY</text>

    <!-- Call to action -->
    <rect x="250" y="180" width="300" height="45" rx="22.5" fill="#0099ff" opacity="0.9" />
    <text x="400" y="210" font-family="'Segoe UI', Tahoma, sans-serif" font-size="20" font-weight="bold" fill="#ffffff" text-anchor="middle">JOIN THE CHALLENGE!</text>

    <!-- Prize callout - changed to show $$$ instead of $10 -->
    <g transform="translate(680, 70)">
        <circle cx="0" cy="0" r="40" fill="#ff9900" opacity="0.9" />
        <text x="0" y="-5" font-family="'Segoe UI', Tahoma, sans-serif" font-size="16" font-weight="bold" fill="#ffffff" text-anchor="middle">WIN</text>
        <text x="0" y="20" font-family="'Segoe UI', Tahoma, sans-serif" font-size="24" font-weight="bold" fill="#ffffff" text-anchor="middle">$$$</text>
    </g>

    <!-- GitHub info -->
    <text x="400" y="240" font-family="'Courier New', monospace" font-size="12" fill="#7fdbff" text-anchor="middle">github.com/javanile/mush-get-started</text>
</svg>